<?xml version="1.0" encoding="utf-8"?>
<!-- Generator: Adobe Illustrator 26.0.3, SVG Export Plug-In . SVG Version: 6.00 Build 0)  -->
<svg version="1.1" id="Layer_1" xmlns="http://www.w3.org/2000/svg" xmlns:xlink="http://www.w3.org/1999/xlink" x="0px" y="0px"
	 viewBox="0 0 2000 792" style="enable-background:new 0 0 2000 792;" xml:space="preserve">
<g>
	<g>
		<g>
			<path d="M152.2,332.3L152.2,332.3L152.2,332.3z"/>
			<path d="M1789.6,517c-10.2,0-20.6-2.9-31.5-8.9l-5.3-2.9l-24.4,53.1l4.5,2.2c20.6,11.3,39.3,16,62.6,16
				c43.1,0,67.7-20.9,88.4-74.4l103.7-267.9h-7.8h-64.4c0,0-53.5,153.3-62.2,177.3c-9.3-24-68-177.3-68-177.3h-73.7
				c0,0,105.8,254.1,107.7,258.6C1810.5,513,1801.6,517,1789.6,517z"/>
			<path d="M1118.7,449.7l3.5-3.8l-42.7-41.8l-3.8,4.2c-20.2,20.6-39.3,30-61.7,30c-40,0-70.4-32.6-70.4-76v-0.7
				c0-41.8,29.6-74.7,67.3-74.7c29.1,0,47.1,14.2,61.7,30l4.2,4.2l43.5-46.7l-3.5-3.8c-28.2-31.6-60.7-45.5-104.9-45.5
				c-76.7,0-136.9,60.6-136.9,137.7v1.1c0,76.4,59.8,136.2,136.2,136.2C1067,499.2,1097,474.5,1118.7,449.7z"/>
			<path d="M1276.5,498.5c79.3,0,141.1-60.2,141.1-137.3v-1.1c0-76.7-61.3-136.9-139.9-136.9c-78.9,0-140.8,60.6-140.8,137.7v1.1
				C1136.7,438.5,1198,498.5,1276.5,498.5z M1206,359.9c0-43.5,29.6-75.3,70.7-75.3s72.2,32.6,72.2,76v1.1
				c0,37.1-24.4,74.7-71.1,74.7c-40.4,0-71.8-33.3-71.8-76L1206,359.9L1206,359.9z"/>
			<path d="M760.9,232.4l0.4,5.3v144.8c0,29.6-19.1,49.8-46.7,49.8c-27.3,0-47.8-21.6-47.8-50.6V232.4h-72.6v150
				c0,65.5,52.4,108.6,119.7,108.6c20.6,0,39.6-7.5,56.6-16c1.5-0.7,2.9-1.5,4.9-2.5l0.7,13.5v5.3h58V381.9v-24.2V232.4H760.9
				L760.9,232.4z"/>
			<path d="M1529.5,490.8l-0.4-5.3V340.8c0-29.6,19.1-50.2,46.7-50.2c27.3,0,47.8,21.6,47.8,50.6v149.3h72.6V340.8
				c0-65.5-52.4-108.6-119.7-108.6c-20.6,0-39.6,7.5-56.2,16c-1.5,0.7-2.9,1.5-4.9,2.5l-0.7-13.5V232h-58v109.3V365v125.7h72.7
				V490.8z"/>
			<path d="M476.7,236.4v11.3c-20.9-12-45.6-24-72.9-24c-80.4,0-143.3,56.2-143.3,134.8v1.1c0,77.8,62.6,133.1,142.6,133.1
				c27.3,0,52.4-12.7,74-24.7v11.3v6.7h64.7V230H477v6.4H476.7z M406.3,435.9c-43.5,0-78.9-34.7-78.9-77.5s35.1-77.5,78.9-77.5
				c43.5,0,78.9,34.7,78.9,77.5C484.8,401.5,449.7,435.9,406.3,435.9z"/>
			<path d="M134.4,268.6c17.6,0,41.8,8.5,72.2,25.1l2.2,1.5L236,246l-2.2-1.5c-29.6-18.4-66.6-29.1-99.5-29.1
				c-50.2,0-100.9,26.9-100.9,86.8v1.1c0,49.1,45.3,68.9,84.6,80.4c26.2,7.8,51.7,16.9,51.7,36.4v1.1c0,8.2-3.8,30.4-38.6,30.4
				c-24.4,0-55.3-14.2-87.1-35.5l-2.2-1.5l-30,46l2.2,1.5c34,25.1,74.7,41.8,115.7,41.8c68,0,105.8-32.9,105.8-87.5v-5.6
				c0-34.4-27.3-60.2-84.2-78.9l0,0l0,0l0,0l-6.7-2.2c-26.2-8.5-45.3-14.9-45.3-35.1v-1.1C98.7,281.3,110,268.6,134.4,268.6z"/>
		</g>
	</g>
</g>
</svg>
